<svg xmlns="http://www.w3.org/2000/svg" version="1.1" width="1584px" height="190px"
    style="shape-rendering:geometricPrecision; text-rendering:geometricPrecision; image-rendering:optimizeQuality; fill-rule:evenodd; clip-rule:evenodd"
    xmlns:xlink="http://www.w3.org/1999/xlink">
    <g>
        <path style="opacity:0.978" fill="#fefffe"
            d="M -0.5,40.5 C -0.5,29.8333 -0.5,19.1667 -0.5,8.5C 53.9066,0.449829 108.573,-1.71684 163.5,2C 181.261,3.47339 198.928,5.64005 216.5,8.5C 216.5,19.1667 216.5,29.8333 216.5,40.5C 188.5,40.5 160.5,40.5 132.5,40.5C 132.5,88.5 132.5,136.5 132.5,184.5C 116.167,184.5 99.8333,184.5 83.5,184.5C 83.5,136.5 83.5,88.5 83.5,40.5C 55.5,40.5 27.5,40.5 -0.5,40.5 Z" />
    </g>
    <g>
        <path style="opacity:0.975" fill="#fefffe"
            d="M 1171.5,0.5 C 1217.15,-1.58853 1262.48,1.07814 1307.5,8.5C 1307.5,19.1667 1307.5,29.8333 1307.5,40.5C 1257.17,40.5 1206.83,40.5 1156.5,40.5C 1156.5,51.5 1156.5,62.5 1156.5,73.5C 1189.5,73.5 1222.5,73.5 1255.5,73.5C 1255.5,85.5 1255.5,97.5 1255.5,109.5C 1222.5,109.5 1189.5,109.5 1156.5,109.5C 1156.5,122.833 1156.5,136.167 1156.5,149.5C 1207.17,149.5 1257.83,149.5 1308.5,149.5C 1308.5,159.833 1308.5,170.167 1308.5,180.5C 1241.51,191.145 1174.51,191.145 1107.5,180.5C 1107.5,123.167 1107.5,65.8333 1107.5,8.5C 1128.91,5.30847 1150.24,2.6418 1171.5,0.5 Z" />
    </g>
    <g>
        <path style="opacity:0.981" fill="#fefffe"
            d="M 1583.5,102.5 C 1583.5,118.833 1583.5,135.167 1583.5,151.5C 1582,160.645 1577.34,167.812 1569.5,173C 1556.67,178.303 1543.34,181.969 1529.5,184C 1479.61,190.945 1429.95,189.778 1380.5,180.5C 1380.5,170.5 1380.5,160.5 1380.5,150.5C 1434.17,150.5 1487.83,150.5 1541.5,150.5C 1541.5,137.167 1541.5,123.833 1541.5,110.5C 1499.17,110.667 1456.83,110.5 1414.5,110C 1395.15,109.306 1383.98,99.4722 1381,80.5C 1380.33,65.5 1380.33,50.5 1381,35.5C 1383.77,21.3964 1392.27,12.8964 1406.5,10C 1444.69,1.18116 1483.36,-1.81884 1522.5,1C 1542.31,2.44203 1561.98,4.94203 1581.5,8.5C 1581.5,18.8333 1581.5,29.1667 1581.5,39.5C 1528.5,39.5 1475.5,39.5 1422.5,39.5C 1422.5,50.5 1422.5,61.5 1422.5,72.5C 1466.17,72.3333 1509.83,72.5 1553.5,73C 1571.36,75.0266 1581.36,84.8599 1583.5,102.5 Z" />
    </g>
    <g>
        <path style="opacity:0.981" fill="#fefffe"
            d="M 317.5,1.5 C 322.833,1.5 328.167,1.5 333.5,1.5C 333.5,26.1667 333.5,50.8333 333.5,75.5C 372.833,75.5 412.167,75.5 451.5,75.5C 451.5,50.8333 451.5,26.1667 451.5,1.5C 467.777,1.39402 483.777,3.39402 499.5,7.5C 500.833,65.5 500.833,123.5 499.5,181.5C 483.805,185.809 467.805,187.809 451.5,187.5C 451.5,162.167 451.5,136.833 451.5,111.5C 412.167,111.5 372.833,111.5 333.5,111.5C 333.5,136.833 333.5,162.167 333.5,187.5C 317.221,187.617 301.221,185.617 285.5,181.5C 284.167,123.5 284.167,65.5 285.5,7.5C 296.104,4.46687 306.771,2.46687 317.5,1.5 Z" />
    </g>
    <g>
        <path style="opacity:0.973" fill="#fefffe"
            d="M 651.5,4.5 C 674.51,4.16695 697.51,4.50028 720.5,5.5C 751.833,63.8333 783.167,122.167 814.5,180.5C 814.167,180.833 813.833,181.167 813.5,181.5C 795.885,186.218 778.052,187.884 760,186.5C 735.725,136.283 710.725,86.6165 685,37.5C 684.228,37.6448 683.561,37.9781 683,38.5C 658.772,87.9568 634.272,137.29 609.5,186.5C 592.536,187.911 575.869,186.245 559.5,181.5C 558.417,180.635 558.251,179.635 559,178.5C 590.113,120.605 620.947,62.6047 651.5,4.5 Z" />
    </g>
    <g>
        <path style="opacity:0.976" fill="#fefffe"
            d="M 870.5,4.5 C 886.833,4.5 903.167,4.5 919.5,4.5C 919.5,51.8333 919.5,99.1667 919.5,146.5C 963.167,146.5 1006.83,146.5 1050.5,146.5C 1050.5,157.833 1050.5,169.167 1050.5,180.5C 990.488,191.1 930.488,191.1 870.5,180.5C 870.5,121.833 870.5,63.1667 870.5,4.5 Z" />
    </g>
    <g>
        <path style="opacity:0.967" fill="#5ebfd3"
            d="M 680.5,104.5 C 699.131,103.384 710.964,111.717 716,129.5C 718.243,148.855 710.077,161.355 691.5,167C 672.701,169.185 660.201,161.352 654,143.5C 651.451,122.562 660.284,109.562 680.5,104.5 Z" />
    </g>
</svg>